<svg version="1.1" xmlns="http://www.w3.org/2000/svg" xmlns:xlink="http://www.w3.org/1999/xlink" width="333.2216796875" height="188"><defs/><g><text fill="#cfcfcf" stroke="none" font-family="Arial" font-size="8px" font-style="normal" font-weight="normal" text-decoration="undefined" x="0" y="0" text-anchor="start" dominant-baseline="alphabetic" transform="matrix(1 0 0 1 0 0)">UNREGISTERED</text><text fill="#cfcfcf" stroke="none" font-family="Arial" font-size="8px" font-style="normal" font-weight="normal" text-decoration="undefined" x="0" y="12" text-anchor="start" dominant-baseline="alphabetic" transform="matrix(1 0 0 1 0 0)">UNREGISTERED</text><text fill="#cfcfcf" stroke="none" font-family="Arial" font-size="8px" font-style="normal" font-weight="normal" text-decoration="undefined" x="0" y="24" text-anchor="start" dominant-baseline="alphabetic" transform="matrix(1 0 0 1 0 0)">UNREGISTERED</text><text fill="#cfcfcf" stroke="none" font-family="Arial" font-size="8px" font-style="normal" font-weight="normal" text-decoration="undefined" x="0" y="36" text-anchor="start" dominant-baseline="alphabetic" transform="matrix(1 0 0 1 0 0)">UNREGISTERED</text><text fill="#cfcfcf" stroke="none" font-family="Arial" font-size="8px" font-style="normal" font-weight="normal" text-decoration="undefined" x="0" y="48" text-anchor="start" dominant-baseline="alphabetic" transform="matrix(1 0 0 1 0 0)">UNREGISTERED</text><text fill="#cfcfcf" stroke="none" font-family="Arial" font-size="8px" font-style="normal" font-weight="normal" text-decoration="undefined" x="0" y="60" text-anchor="start" dominant-baseline="alphabetic" transform="matrix(1 0 0 1 0 0)">UNREGISTERED</text><text fill="#cfcfcf" stroke="none" font-family="Arial" font-size="8px" font-style="normal" font-weight="normal" text-decoration="undefined" x="0" y="72" text-anchor="start" dominant-baseline="alphabetic" transform="matrix(1 0 0 1 0 0)">UNREGISTERED</text><text fill="#cfcfcf" stroke="none" font-family="Arial" font-size="8px" font-style="normal" font-weight="normal" text-decoration="undefined" x="0" y="84" text-anchor="start" dominant-baseline="alphabetic" transform="matrix(1 0 0 1 0 0)">UNREGISTERED</text><text fill="#cfcfcf" stroke="none" font-family="Arial" font-size="8px" font-style="normal" font-weight="normal" text-decoration="undefined" x="0" y="96" text-anchor="start" dominant-baseline="alphabetic" transform="matrix(1 0 0 1 0 0)">UNREGISTERED</text><text fill="#cfcfcf" stroke="none" font-family="Arial" font-size="8px" font-style="normal" font-weight="normal" text-decoration="undefined" x="0" y="108" text-anchor="start" dominant-baseline="alphabetic" transform="matrix(1 0 0 1 0 0)">UNREGISTERED</text><text fill="#cfcfcf" stroke="none" font-family="Arial" font-size="8px" font-style="normal" font-weight="normal" text-decoration="undefined" x="0" y="120" text-anchor="start" dominant-baseline="alphabetic" transform="matrix(1 0 0 1 0 0)">UNREGISTERED</text><text fill="#cfcfcf" stroke="none" font-family="Arial" font-size="8px" font-style="normal" font-weight="normal" text-decoration="undefined" x="0" y="132" text-anchor="start" dominant-baseline="alphabetic" transform="matrix(1 0 0 1 0 0)">UNREGISTERED</text><text fill="#cfcfcf" stroke="none" font-family="Arial" font-size="8px" font-style="normal" font-weight="normal" text-decoration="undefined" x="0" y="144" text-anchor="start" dominant-baseline="alphabetic" transform="matrix(1 0 0 1 0 0)">UNREGISTERED</text><text fill="#cfcfcf" stroke="none" font-family="Arial" font-size="8px" font-style="normal" font-weight="normal" text-decoration="undefined" x="0" y="156" text-anchor="start" dominant-baseline="alphabetic" transform="matrix(1 0 0 1 0 0)">UNREGISTERED</text><text fill="#cfcfcf" stroke="none" font-family="Arial" font-size="8px" font-style="normal" font-weight="normal" text-decoration="undefined" x="0" y="168" text-anchor="start" dominant-baseline="alphabetic" transform="matrix(1 0 0 1 0 0)">UNREGISTERED</text><text fill="#cfcfcf" stroke="none" font-family="Arial" font-size="8px" font-style="normal" font-weight="normal" text-decoration="undefined" x="0" y="180" text-anchor="start" dominant-baseline="alphabetic" transform="matrix(1 0 0 1 0 0)">UNREGISTERED</text><text fill="#cfcfcf" stroke="none" font-family="Arial" font-size="8px" font-style="normal" font-weight="normal" text-decoration="undefined" x="70" y="0" text-anchor="start" dominant-baseline="alphabetic" transform="matrix(1 0 0 1 0 0)">UNREGISTERED</text><text fill="#cfcfcf" stroke="none" font-family="Arial" font-size="8px" font-style="normal" font-weight="normal" text-decoration="undefined" x="70" y="12" text-anchor="start" dominant-baseline="alphabetic" transform="matrix(1 0 0 1 0 0)">UNREGISTERED</text><text fill="#cfcfcf" stroke="none" font-family="Arial" font-size="8px" font-style="normal" font-weight="normal" text-decoration="undefined" x="70" y="24" text-anchor="start" dominant-baseline="alphabetic" transform="matrix(1 0 0 1 0 0)">UNREGISTERED</text><text fill="#cfcfcf" stroke="none" font-family="Arial" font-size="8px" font-style="normal" font-weight="normal" text-decoration="undefined" x="70" y="36" text-anchor="start" dominant-baseline="alphabetic" transform="matrix(1 0 0 1 0 0)">UNREGISTERED</text><text fill="#cfcfcf" stroke="none" font-family="Arial" font-size="8px" font-style="normal" font-weight="normal" text-decoration="undefined" x="70" y="48" text-anchor="start" dominant-baseline="alphabetic" transform="matrix(1 0 0 1 0 0)">UNREGISTERED</text><text fill="#cfcfcf" stroke="none" font-family="Arial" font-size="8px" font-style="normal" font-weight="normal" text-decoration="undefined" x="70" y="60" text-anchor="start" dominant-baseline="alphabetic" transform="matrix(1 0 0 1 0 0)">UNREGISTERED</text><text fill="#cfcfcf" stroke="none" font-family="Arial" font-size="8px" font-style="normal" font-weight="normal" text-decoration="undefined" x="70" y="72" text-anchor="start" dominant-baseline="alphabetic" transform="matrix(1 0 0 1 0 0)">UNREGISTERED</text><text fill="#cfcfcf" stroke="none" font-family="Arial" font-size="8px" font-style="normal" font-weight="normal" text-decoration="undefined" x="70" y="84" text-anchor="start" dominant-baseline="alphabetic" transform="matrix(1 0 0 1 0 0)">UNREGISTERED</text><text fill="#cfcfcf" stroke="none" font-family="Arial" font-size="8px" font-style="normal" font-weight="normal" text-decoration="undefined" x="70" y="96" text-anchor="start" dominant-baseline="alphabetic" transform="matrix(1 0 0 1 0 0)">UNREGISTERED</text><text fill="#cfcfcf" stroke="none" font-family="Arial" font-size="8px" font-style="normal" font-weight="normal" text-decoration="undefined" x="70" y="108" text-anchor="start" dominant-baseline="alphabetic" transform="matrix(1 0 0 1 0 0)">UNREGISTERED</text><text fill="#cfcfcf" stroke="none" font-family="Arial" font-size="8px" font-style="normal" font-weight="normal" text-decoration="undefined" x="70" y="120" text-anchor="start" dominant-baseline="alphabetic" transform="matrix(1 0 0 1 0 0)">UNREGISTERED</text><text fill="#cfcfcf" stroke="none" font-family="Arial" font-size="8px" font-style="normal" font-weight="normal" text-decoration="undefined" x="70" y="132" text-anchor="start" dominant-baseline="alphabetic" transform="matrix(1 0 0 1 0 0)">UNREGISTERED</text><text fill="#cfcfcf" stroke="none" font-family="Arial" font-size="8px" font-style="normal" font-weight="normal" text-decoration="undefined" x="70" y="144" text-anchor="start" dominant-baseline="alphabetic" transform="matrix(1 0 0 1 0 0)">UNREGISTERED</text><text fill="#cfcfcf" stroke="none" font-family="Arial" font-size="8px" font-style="normal" font-weight="normal" text-decoration="undefined" x="70" y="156" text-anchor="start" dominant-baseline="alphabetic" transform="matrix(1 0 0 1 0 0)">UNREGISTERED</text><text fill="#cfcfcf" stroke="none" font-family="Arial" font-size="8px" font-style="normal" font-weight="normal" text-decoration="undefined" x="70" y="168" text-anchor="start" dominant-baseline="alphabetic" transform="matrix(1 0 0 1 0 0)">UNREGISTERED</text><text fill="#cfcfcf" stroke="none" font-family="Arial" font-size="8px" font-style="normal" font-weight="normal" text-decoration="undefined" x="70" y="180" text-anchor="start" dominant-baseline="alphabetic" transform="matrix(1 0 0 1 0 0)">UNREGISTERED</text><text fill="#cfcfcf" stroke="none" font-family="Arial" font-size="8px" font-style="normal" font-weight="normal" text-decoration="undefined" x="140" y="0" text-anchor="start" dominant-baseline="alphabetic" transform="matrix(1 0 0 1 0 0)">UNREGISTERED</text><text fill="#cfcfcf" stroke="none" font-family="Arial" font-size="8px" font-style="normal" font-weight="normal" text-decoration="undefined" x="140" y="12" text-anchor="start" dominant-baseline="alphabetic" transform="matrix(1 0 0 1 0 0)">UNREGISTERED</text><text fill="#cfcfcf" stroke="none" font-family="Arial" font-size="8px" font-style="normal" font-weight="normal" text-decoration="undefined" x="140" y="24" text-anchor="start" dominant-baseline="alphabetic" transform="matrix(1 0 0 1 0 0)">UNREGISTERED</text><text fill="#cfcfcf" stroke="none" font-family="Arial" font-size="8px" font-style="normal" font-weight="normal" text-decoration="undefined" x="140" y="36" text-anchor="start" dominant-baseline="alphabetic" transform="matrix(1 0 0 1 0 0)">UNREGISTERED</text><text fill="#cfcfcf" stroke="none" font-family="Arial" font-size="8px" font-style="normal" font-weight="normal" text-decoration="undefined" x="140" y="48" text-anchor="start" dominant-baseline="alphabetic" transform="matrix(1 0 0 1 0 0)">UNREGISTERED</text><text fill="#cfcfcf" stroke="none" font-family="Arial" font-size="8px" font-style="normal" font-weight="normal" text-decoration="undefined" x="140" y="60" text-anchor="start" dominant-baseline="alphabetic" transform="matrix(1 0 0 1 0 0)">UNREGISTERED</text><text fill="#cfcfcf" stroke="none" font-family="Arial" font-size="8px" font-style="normal" font-weight="normal" text-decoration="undefined" x="140" y="72" text-anchor="start" dominant-baseline="alphabetic" transform="matrix(1 0 0 1 0 0)">UNREGISTERED</text><text fill="#cfcfcf" stroke="none" font-family="Arial" font-size="8px" font-style="normal" font-weight="normal" text-decoration="undefined" x="140" y="84" text-anchor="start" dominant-baseline="alphabetic" transform="matrix(1 0 0 1 0 0)">UNREGISTERED</text><text fill="#cfcfcf" stroke="none" font-family="Arial" font-size="8px" font-style="normal" font-weight="normal" text-decoration="undefined" x="140" y="96" text-anchor="start" dominant-baseline="alphabetic" transform="matrix(1 0 0 1 0 0)">UNREGISTERED</text><text fill="#cfcfcf" stroke="none" font-family="Arial" font-size="8px" font-style="normal" font-weight="normal" text-decoration="undefined" x="140" y="108" text-anchor="start" dominant-baseline="alphabetic" transform="matrix(1 0 0 1 0 0)">UNREGISTERED</text><text fill="#cfcfcf" stroke="none" font-family="Arial" font-size="8px" font-style="normal" font-weight="normal" text-decoration="undefined" x="140" y="120" text-anchor="start" dominant-baseline="alphabetic" transform="matrix(1 0 0 1 0 0)">UNREGISTERED</text><text fill="#cfcfcf" stroke="none" font-family="Arial" font-size="8px" font-style="normal" font-weight="normal" text-decoration="undefined" x="140" y="132" text-anchor="start" dominant-baseline="alphabetic" transform="matrix(1 0 0 1 0 0)">UNREGISTERED</text><text fill="#cfcfcf" stroke="none" font-family="Arial" font-size="8px" font-style="normal" font-weight="normal" text-decoration="undefined" x="140" y="144" text-anchor="start" dominant-baseline="alphabetic" transform="matrix(1 0 0 1 0 0)">UNREGISTERED</text><text fill="#cfcfcf" stroke="none" font-family="Arial" font-size="8px" font-style="normal" font-weight="normal" text-decoration="undefined" x="140" y="156" text-anchor="start" dominant-baseline="alphabetic" transform="matrix(1 0 0 1 0 0)">UNREGISTERED</text><text fill="#cfcfcf" stroke="none" font-family="Arial" font-size="8px" font-style="normal" font-weight="normal" text-decoration="undefined" x="140" y="168" text-anchor="start" dominant-baseline="alphabetic" transform="matrix(1 0 0 1 0 0)">UNREGISTERED</text><text fill="#cfcfcf" stroke="none" font-family="Arial" font-size="8px" font-style="normal" font-weight="normal" text-decoration="undefined" x="140" y="180" text-anchor="start" dominant-baseline="alphabetic" transform="matrix(1 0 0 1 0 0)">UNREGISTERED</text><text fill="#cfcfcf" stroke="none" font-family="Arial" font-size="8px" font-style="normal" font-weight="normal" text-decoration="undefined" x="210" y="0" text-anchor="start" dominant-baseline="alphabetic" transform="matrix(1 0 0 1 0 0)">UNREGISTERED</text><text fill="#cfcfcf" stroke="none" font-family="Arial" font-size="8px" font-style="normal" font-weight="normal" text-decoration="undefined" x="210" y="12" text-anchor="start" dominant-baseline="alphabetic" transform="matrix(1 0 0 1 0 0)">UNREGISTERED</text><text fill="#cfcfcf" stroke="none" font-family="Arial" font-size="8px" font-style="normal" font-weight="normal" text-decoration="undefined" x="210" y="24" text-anchor="start" dominant-baseline="alphabetic" transform="matrix(1 0 0 1 0 0)">UNREGISTERED</text><text fill="#cfcfcf" stroke="none" font-family="Arial" font-size="8px" font-style="normal" font-weight="normal" text-decoration="undefined" x="210" y="36" text-anchor="start" dominant-baseline="alphabetic" transform="matrix(1 0 0 1 0 0)">UNREGISTERED</text><text fill="#cfcfcf" stroke="none" font-family="Arial" font-size="8px" font-style="normal" font-weight="normal" text-decoration="undefined" x="210" y="48" text-anchor="start" dominant-baseline="alphabetic" transform="matrix(1 0 0 1 0 0)">UNREGISTERED</text><text fill="#cfcfcf" stroke="none" font-family="Arial" font-size="8px" font-style="normal" font-weight="normal" text-decoration="undefined" x="210" y="60" text-anchor="start" dominant-baseline="alphabetic" transform="matrix(1 0 0 1 0 0)">UNREGISTERED</text><text fill="#cfcfcf" stroke="none" font-family="Arial" font-size="8px" font-style="normal" font-weight="normal" text-decoration="undefined" x="210" y="72" text-anchor="start" dominant-baseline="alphabetic" transform="matrix(1 0 0 1 0 0)">UNREGISTERED</text><text fill="#cfcfcf" stroke="none" font-family="Arial" font-size="8px" font-style="normal" font-weight="normal" text-decoration="undefined" x="210" y="84" text-anchor="start" dominant-baseline="alphabetic" transform="matrix(1 0 0 1 0 0)">UNREGISTERED</text><text fill="#cfcfcf" stroke="none" font-family="Arial" font-size="8px" font-style="normal" font-weight="normal" text-decoration="undefined" x="210" y="96" text-anchor="start" dominant-baseline="alphabetic" transform="matrix(1 0 0 1 0 0)">UNREGISTERED</text><text fill="#cfcfcf" stroke="none" font-family="Arial" font-size="8px" font-style="normal" font-weight="normal" text-decoration="undefined" x="210" y="108" text-anchor="start" dominant-baseline="alphabetic" transform="matrix(1 0 0 1 0 0)">UNREGISTERED</text><text fill="#cfcfcf" stroke="none" font-family="Arial" font-size="8px" font-style="normal" font-weight="normal" text-decoration="undefined" x="210" y="120" text-anchor="start" dominant-baseline="alphabetic" transform="matrix(1 0 0 1 0 0)">UNREGISTERED</text><text fill="#cfcfcf" stroke="none" font-family="Arial" font-size="8px" font-style="normal" font-weight="normal" text-decoration="undefined" x="210" y="132" text-anchor="start" dominant-baseline="alphabetic" transform="matrix(1 0 0 1 0 0)">UNREGISTERED</text><text fill="#cfcfcf" stroke="none" font-family="Arial" font-size="8px" font-style="normal" font-weight="normal" text-decoration="undefined" x="210" y="144" text-anchor="start" dominant-baseline="alphabetic" transform="matrix(1 0 0 1 0 0)">UNREGISTERED</text><text fill="#cfcfcf" stroke="none" font-family="Arial" font-size="8px" font-style="normal" font-weight="normal" text-decoration="undefined" x="210" y="156" text-anchor="start" dominant-baseline="alphabetic" transform="matrix(1 0 0 1 0 0)">UNREGISTERED</text><text fill="#cfcfcf" stroke="none" font-family="Arial" font-size="8px" font-style="normal" font-weight="normal" text-decoration="undefined" x="210" y="168" text-anchor="start" dominant-baseline="alphabetic" transform="matrix(1 0 0 1 0 0)">UNREGISTERED</text><text fill="#cfcfcf" stroke="none" font-family="Arial" font-size="8px" font-style="normal" font-weight="normal" text-decoration="undefined" x="210" y="180" text-anchor="start" dominant-baseline="alphabetic" transform="matrix(1 0 0 1 0 0)">UNREGISTERED</text><text fill="#cfcfcf" stroke="none" font-family="Arial" font-size="8px" font-style="normal" font-weight="normal" text-decoration="undefined" x="280" y="0" text-anchor="start" dominant-baseline="alphabetic" transform="matrix(1 0 0 1 0 0)">UNREGISTERED</text><text fill="#cfcfcf" stroke="none" font-family="Arial" font-size="8px" font-style="normal" font-weight="normal" text-decoration="undefined" x="280" y="12" text-anchor="start" dominant-baseline="alphabetic" transform="matrix(1 0 0 1 0 0)">UNREGISTERED</text><text fill="#cfcfcf" stroke="none" font-family="Arial" font-size="8px" font-style="normal" font-weight="normal" text-decoration="undefined" x="280" y="24" text-anchor="start" dominant-baseline="alphabetic" transform="matrix(1 0 0 1 0 0)">UNREGISTERED</text><text fill="#cfcfcf" stroke="none" font-family="Arial" font-size="8px" font-style="normal" font-weight="normal" text-decoration="undefined" x="280" y="36" text-anchor="start" dominant-baseline="alphabetic" transform="matrix(1 0 0 1 0 0)">UNREGISTERED</text><text fill="#cfcfcf" stroke="none" font-family="Arial" font-size="8px" font-style="normal" font-weight="normal" text-decoration="undefined" x="280" y="48" text-anchor="start" dominant-baseline="alphabetic" transform="matrix(1 0 0 1 0 0)">UNREGISTERED</text><text fill="#cfcfcf" stroke="none" font-family="Arial" font-size="8px" font-style="normal" font-weight="normal" text-decoration="undefined" x="280" y="60" text-anchor="start" dominant-baseline="alphabetic" transform="matrix(1 0 0 1 0 0)">UNREGISTERED</text><text fill="#cfcfcf" stroke="none" font-family="Arial" font-size="8px" font-style="normal" font-weight="normal" text-decoration="undefined" x="280" y="72" text-anchor="start" dominant-baseline="alphabetic" transform="matrix(1 0 0 1 0 0)">UNREGISTERED</text><text fill="#cfcfcf" stroke="none" font-family="Arial" font-size="8px" font-style="normal" font-weight="normal" text-decoration="undefined" x="280" y="84" text-anchor="start" dominant-baseline="alphabetic" transform="matrix(1 0 0 1 0 0)">UNREGISTERED</text><text fill="#cfcfcf" stroke="none" font-family="Arial" font-size="8px" font-style="normal" font-weight="normal" text-decoration="undefined" x="280" y="96" text-anchor="start" dominant-baseline="alphabetic" transform="matrix(1 0 0 1 0 0)">UNREGISTERED</text><text fill="#cfcfcf" stroke="none" font-family="Arial" font-size="8px" font-style="normal" font-weight="normal" text-decoration="undefined" x="280" y="108" text-anchor="start" dominant-baseline="alphabetic" transform="matrix(1 0 0 1 0 0)">UNREGISTERED</text><text fill="#cfcfcf" stroke="none" font-family="Arial" font-size="8px" font-style="normal" font-weight="normal" text-decoration="undefined" x="280" y="120" text-anchor="start" dominant-baseline="alphabetic" transform="matrix(1 0 0 1 0 0)">UNREGISTERED</text><text fill="#cfcfcf" stroke="none" font-family="Arial" font-size="8px" font-style="normal" font-weight="normal" text-decoration="undefined" x="280" y="132" text-anchor="start" dominant-baseline="alphabetic" transform="matrix(1 0 0 1 0 0)">UNREGISTERED</text><text fill="#cfcfcf" stroke="none" font-family="Arial" font-size="8px" font-style="normal" font-weight="normal" text-decoration="undefined" x="280" y="144" text-anchor="start" dominant-baseline="alphabetic" transform="matrix(1 0 0 1 0 0)">UNREGISTERED</text><text fill="#cfcfcf" stroke="none" font-family="Arial" font-size="8px" font-style="normal" font-weight="normal" text-decoration="undefined" x="280" y="156" text-anchor="start" dominant-baseline="alphabetic" transform="matrix(1 0 0 1 0 0)">UNREGISTERED</text><text fill="#cfcfcf" stroke="none" font-family="Arial" font-size="8px" font-style="normal" font-weight="normal" text-decoration="undefined" x="280" y="168" text-anchor="start" dominant-baseline="alphabetic" transform="matrix(1 0 0 1 0 0)">UNREGISTERED</text><text fill="#cfcfcf" stroke="none" font-family="Arial" font-size="8px" font-style="normal" font-weight="normal" text-decoration="undefined" x="280" y="180" text-anchor="start" dominant-baseline="alphabetic" transform="matrix(1 0 0 1 0 0)">UNREGISTERED</text><g><path fill="#ffffff" stroke="none" paint-order="stroke fill markers" d=" M 108.91083984375001 81.5 C 108.91083984375001 49.909309440000015 134.52014928375002 24.299999999999955 166.11083984375 24.299999999999955 C 197.70153040374998 24.299999999999955 223.31083984375005 49.909309440000015 223.31083984375005 81.5 C 223.31083984375005 113.09069055999998 197.70153040374998 138.70000000000005 166.11083984375 138.70000000000005 C 134.52014928375002 138.70000000000005 108.91083984375001 113.09069055999998 108.91083984375001 81.5 Z"/></g><g><path fill="none" stroke="#000000" paint-order="fill stroke markers" d=" M 108.91083984375001 81.5 C 108.91083984375001 49.909309440000015 134.52014928375002 24.299999999999955 166.11083984375 24.299999999999955 C 197.70153040374998 24.299999999999955 223.31083984375005 49.909309440000015 223.31083984375005 81.5 C 223.31083984375005 113.09069055999998 197.70153040374998 138.70000000000005 166.11083984375 138.70000000000005 C 134.52014928375002 138.70000000000005 108.91083984375001 113.09069055999998 108.91083984375001 81.5 Z" stroke-miterlimit="10" stroke-dasharray=""/></g><g><path fill="none" stroke="#000000" paint-order="fill stroke markers" d=" M 223.31083984375005 81.5 L 166.11083984375 138.70000000000005" stroke-miterlimit="10" stroke-dasharray=""/></g><g><path fill="none" stroke="#000000" paint-order="fill stroke markers" d=" M 151.81083984375005 52.90000000000009 C 151.81083984375005 45.002327360000095 158.21316720375 38.60000000000002 166.11083984375 38.60000000000002 C 174.00851248375 38.60000000000002 180.41083984374995 45.002327360000095 180.41083984374995 52.90000000000009 C 180.41083984374995 60.79767264000009 174.00851248375 67.20000000000005 166.11083984375 67.20000000000005 C 158.21316720375 67.20000000000005 151.81083984375005 60.79767264000009 151.81083984375005 52.90000000000009 Z" stroke-miterlimit="10" stroke-dasharray=""/></g><g><path fill="none" stroke="#000000" paint-order="fill stroke markers" d=" M 137.51083984374998 81.5 L 194.71083984375002 81.5" stroke-miterlimit="10" stroke-dasharray=""/></g><g><path fill="none" stroke="#000000" paint-order="fill stroke markers" d=" M 166.11083984375 63.625 L 166.11083984375 99.375" stroke-miterlimit="10" stroke-dasharray=""/></g><g><path fill="none" stroke="#000000" paint-order="fill stroke markers" d=" M 166.11083984375 99.375 L 148.23583984375 124.39999999999998" stroke-miterlimit="10" stroke-dasharray=""/></g><g><path fill="none" stroke="#000000" paint-order="fill stroke markers" d=" M 166.11083984375 99.375 L 183.98583984375 124.39999999999998" stroke-miterlimit="10" stroke-dasharray=""/></g><g><path fill="none" stroke="#000000" paint-order="fill stroke markers" d=" M 166.11083984375 24.299999999999955 L 180.41083984374995 10" stroke-miterlimit="10" stroke-dasharray=""/></g><g><path fill="none" stroke="#000000" paint-order="fill stroke markers" d=" M 166.11083984375 24.299999999999955 L 180.41083984374995 38.60000000000002" stroke-miterlimit="10" stroke-dasharray=""/></g><g><g><path fill="none" stroke="none"/><text fill="#000000" stroke="none" font-family="Arial" font-size="13px" font-style="normal" font-weight="bold" text-decoration="undefined" x="548.61083984375" y="956.5" text-anchor="middle" dominant-baseline="central" transform="matrix(1 0 0 1 -382 -790)">Coordinador Académico de Escuela (CAE)</text></g></g></g></svg>